<svg width="168" height="222" viewBox="0 0 168 222" fill="none" xmlns="http://www.w3.org/2000/svg">
<path fill-rule="evenodd" clip-rule="evenodd" d="M21.5278 187.72C22.6729 193.14 17.3291 249.25 17.0238 251.845C18.9323 255.281 24.1234 257.952 27.3297 261.006C28.8565 262.609 31.9101 265.586 29.9252 266.35C25.9555 267.877 21.9095 263.144 21.9095 263.144C21.9095 263.144 20.9171 262.38 20.5354 264.747C20.0774 267.342 27.1006 275.434 26.948 277.495C26.7189 280.702 14.4282 288.641 9.92418 282.687C7.02327 279.099 5.11477 274.747 4.50405 270.167C4.12235 266.502 4.88575 258.258 5.26745 254.441C5.64915 250.624 0.687056 194.132 0.152677 186.422V185.659H0L0.152677 185.124C0.152677 184.284 0.458038 183.445 0.839737 182.681L9.23712 152.985L34.3529 159.321C34.3529 159.321 25.6502 185.43 21.6042 187.72H21.5278Z" fill="#F5C7A6"/>
<path fill-rule="evenodd" clip-rule="evenodd" d="M25.3438 177.338L28.779 178.712L35.2679 155.046L25.3438 177.338Z" fill="#7F0F27"/>
<path fill-rule="evenodd" clip-rule="evenodd" d="M25.3437 177.338L35.2679 155.123L47.4822 110.846C45.9554 110.388 44.4286 110.006 42.9018 109.777L14.5034 173.139L25.3437 177.338Z" fill="#1F233E"/>
<path fill-rule="evenodd" clip-rule="evenodd" d="M14.5032 173.063L42.9779 109.777C38.7029 109.014 34.3515 109.09 30.1529 110.159L3.73926 168.864L14.5032 173.063Z" fill="#F5F5F5"/>
<path fill-rule="evenodd" clip-rule="evenodd" d="M19.0075 120.922C13.282 138.48 2.82349 168.482 2.82349 168.482L3.73956 168.864L30.1532 110.158C24.8094 111.532 20.5343 115.655 19.0075 120.998V120.922Z" fill="#7F0F27"/>
<path opacity="0.38" fill-rule="evenodd" clip-rule="evenodd" d="M45.0395 119.777L47.5587 110.845C47.5587 110.845 35.497 106.952 26.7179 111.533L45.0395 119.777Z" fill="#F5F5F5"/>
<path opacity="0.38" fill-rule="evenodd" clip-rule="evenodd" d="M33.4359 150.39L33.3596 138.175L15.8014 130.389L12.5188 140.847L33.4359 150.39Z" fill="#F5F5F5"/>
<path opacity="0.2" fill-rule="evenodd" clip-rule="evenodd" d="M39.3146 140.694L42.3682 129.549L19.6189 119.319L19.0082 120.922L15.9546 130.236L39.3146 140.694Z" fill="black"/>
<path opacity="0.38" fill-rule="evenodd" clip-rule="evenodd" d="M29.9241 174.208L4.73198 162.986L2.82349 168.558L28.779 178.788L29.9241 174.208Z" fill="#F5F5F5"/>
<path opacity="0.2" fill-rule="evenodd" clip-rule="evenodd" d="M33.0541 162.986L8.54905 152.069L4.73206 162.986L29.9242 174.284L33.0541 162.986Z" fill="black"/>
<path fill-rule="evenodd" clip-rule="evenodd" d="M157.947 153.061L132.755 159.321C132.755 159.321 141.534 185.506 145.58 187.72C148.176 189.018 167.108 185.582 167.108 185.582L157.947 153.061Z" fill="#F5C7A6"/>
<path fill-rule="evenodd" clip-rule="evenodd" d="M141.229 177.338L137.793 178.712L131.228 155.046L141.229 177.338Z" fill="#7F0F27"/>
<path fill-rule="evenodd" clip-rule="evenodd" d="M141.228 177.338L131.304 155.123L119.014 110.846C120.54 110.388 122.067 110.006 123.594 109.777L151.992 173.139L141.228 177.338Z" fill="#1F233E"/>
<path fill-rule="evenodd" clip-rule="evenodd" d="M151.993 173.062L123.594 109.777C126.953 109.242 131.839 108.861 136.42 110.158L162.757 168.864L151.993 173.062Z" fill="#F5F5F5"/>
<path fill-rule="evenodd" clip-rule="evenodd" d="M147.488 120.922C153.29 138.48 163.672 168.482 163.672 168.482L162.756 168.863L136.419 110.158C141.763 111.532 145.961 115.655 147.488 120.998V120.922Z" fill="#7F0F27"/>
<path opacity="0.38" fill-rule="evenodd" clip-rule="evenodd" d="M121.456 119.779L119.013 110.848C119.013 110.848 130.999 106.954 139.778 111.535L121.456 119.779Z" fill="#F5F5F5"/>
<path opacity="0.38" fill-rule="evenodd" clip-rule="evenodd" d="M133.06 150.39L133.212 138.175L150.771 130.389L154.053 140.847L133.06 150.39Z" fill="#F5F5F5"/>
<path opacity="0.2" fill-rule="evenodd" clip-rule="evenodd" d="M127.258 140.694L124.204 129.549L146.877 119.319L147.488 120.922L150.541 130.236L127.258 140.694Z" fill="black"/>
<path opacity="0.38" fill-rule="evenodd" clip-rule="evenodd" d="M136.571 174.207L161.763 162.909L163.672 168.482L137.716 178.711L136.571 174.207Z" fill="#F5F5F5"/>
<path opacity="0.2" fill-rule="evenodd" clip-rule="evenodd" d="M133.442 162.986L158.023 151.993C159.245 155.657 160.543 159.245 161.764 162.909L136.572 174.208L133.442 162.986Z" fill="black"/>
<path fill-rule="evenodd" clip-rule="evenodd" d="M68.8586 102.677C72.752 102.219 76.6453 101.914 80.386 101.685V258.945H68.8586V102.677Z" fill="#7F0F27"/>
<path fill-rule="evenodd" clip-rule="evenodd" d="M57.2548 104.357C61.0718 103.746 64.8887 103.135 68.8584 102.677V259.021H57.2548V104.357Z" fill="#1F233E"/>
<path fill-rule="evenodd" clip-rule="evenodd" d="M45.7273 106.494L57.2546 104.357V259.021H45.7273C45.7273 259.021 45.7273 106.494 45.7273 106.494Z" fill="#F5F5F5"/>
<path fill-rule="evenodd" clip-rule="evenodd" d="M34.1238 109.09L34.5055 109.013H34.5818L34.9635 108.861H35.0399L35.4979 108.784C37.7881 108.174 41.3761 107.41 45.7274 106.494V259.021H38.0171L34.2001 150.237V109.013L34.1238 109.09Z" fill="#7F0F27"/>
<path fill-rule="evenodd" clip-rule="evenodd" d="M34.124 109.09V150.237L32.6736 109.471L34.124 109.09Z" fill="#1F233E"/>
<path fill-rule="evenodd" clip-rule="evenodd" d="M103.517 103.135C107.563 103.746 111.533 104.433 115.121 105.12V259.021H103.517V103.135Z" fill="#7F0F27"/>
<path fill-rule="evenodd" clip-rule="evenodd" d="M91.9891 101.914C95.8061 102.143 99.6995 102.601 103.516 103.135V259.021H91.9891V101.914Z" fill="#1F233E"/>
<path fill-rule="evenodd" clip-rule="evenodd" d="M80.3863 101.685C84.2796 101.532 88.0966 101.608 91.9899 101.914V259.021H80.3099V101.761L80.3863 101.685Z" fill="#F5F5F5"/>
<path fill-rule="evenodd" clip-rule="evenodd" d="M126.113 107.486C128.633 108.097 131.152 108.784 133.671 109.471L131.457 259.021H126.113V107.486Z" fill="#1F233E"/>
<path fill-rule="evenodd" clip-rule="evenodd" d="M114.51 104.967L126.114 107.486V259.021H114.51V104.967Z" fill="#F5F5F5"/>
<path opacity="0.38" fill-rule="evenodd" clip-rule="evenodd" d="M33.2075 123.518H133.442L133.289 134.968H33.5892L33.2075 123.518Z" fill="#F5F5F5"/>
<path opacity="0.2" fill-rule="evenodd" clip-rule="evenodd" d="M32.8262 112.067H133.595L133.442 123.518H33.2079L32.8262 112.067Z" fill="black"/>
<path opacity="0.38" fill-rule="evenodd" clip-rule="evenodd" d="M34.3535 156.42H132.985L132.832 167.871H34.8116L34.3535 156.42Z" fill="#F5F5F5"/>
<path opacity="0.2" fill-rule="evenodd" clip-rule="evenodd" d="M33.9717 144.969H133.213L132.984 156.42H34.3534L33.9717 144.969Z" fill="black"/>
<path opacity="0.38" fill-rule="evenodd" clip-rule="evenodd" d="M35.5746 190.85H132.526L132.297 202.301H36.0326L35.5746 190.85Z" fill="#F5F5F5"/>
<path opacity="0.2" fill-rule="evenodd" clip-rule="evenodd" d="M35.1927 179.399H132.602L132.45 190.85H35.5744L35.1927 179.399Z" fill="black"/>
<path opacity="0.2" fill-rule="evenodd" clip-rule="evenodd" d="M36.4143 214.133H132.144L131.992 225.584H36.796L36.4143 214.133Z" fill="black"/>
<path opacity="0.2" fill-rule="evenodd" clip-rule="evenodd" d="M79.9282 101.914H92.2189C112.067 103.288 133.671 109.471 133.671 109.471L131.534 256.044H79.9282V101.837V101.914Z" fill="#6A4988"/>
<path fill-rule="evenodd" clip-rule="evenodd" d="M83.3629 195.277C82.2178 195.201 81.3018 194.285 81.3781 193.14C81.4544 191.995 82.3705 191.079 83.5156 191.155C84.6607 191.231 85.5005 192.071 85.5005 193.216C85.5005 194.361 84.5844 195.277 83.4393 195.277H83.3629ZM83.3629 165.886C82.2178 165.81 81.3018 164.894 81.3781 163.749C81.4544 162.604 82.3705 161.688 83.5156 161.764C84.6607 161.84 85.5005 162.68 85.5005 163.825C85.5005 164.97 84.5844 165.886 83.4393 165.886H83.3629ZM83.3629 136.572C82.2178 136.496 81.3018 135.579 81.3781 134.434C81.4544 133.289 82.3705 132.373 83.5156 132.45C84.6607 132.526 85.5005 133.366 85.5005 134.511C85.5005 135.656 84.5844 136.572 83.4393 136.572H83.3629ZM83.3629 220.164C84.508 220.088 85.4241 221.004 85.5005 222.149C85.5768 223.294 84.6607 224.21 83.5156 224.286C82.3705 224.363 81.4544 223.447 81.3781 222.302V222.225C81.3781 221.08 82.2942 220.164 83.3629 220.164C83.4393 220.164 83.4393 220.164 83.3629 220.164Z" fill="white"/>
<path fill-rule="evenodd" clip-rule="evenodd" d="M64.049 81.6075C67.866 98.555 60.8428 115.731 60.8428 115.731L83.7447 129.549L107.41 115.426C107.41 115.426 99.2417 102.296 102.83 78.8593C102.601 80.0044 63.4383 79.6227 64.049 81.6075Z" fill="#F5C7A6"/>
<path opacity="0.1" fill-rule="evenodd" clip-rule="evenodd" d="M102.142 94.8907C99.2414 98.1733 95.5771 100.616 91.4547 102.143C86.2636 103.67 78.2479 103.212 73.8965 101.99C71.6063 101.38 68.3237 98.2496 65.1175 94.509C65.3465 90.1576 64.9648 85.8062 64.0487 81.5312C63.438 79.6227 102.6 80.0044 102.906 78.8593C102.066 84.1268 101.761 89.5469 102.142 94.8907Z" fill="black"/>
<path fill-rule="evenodd" clip-rule="evenodd" d="M76.3403 113.212L83.2109 129.625C83.2109 129.625 57.866 117.945 59.5455 113.823C61.225 109.7 76.3403 113.212 76.3403 113.212Z" fill="#7F0F27"/>
<path fill-rule="evenodd" clip-rule="evenodd" d="M90.2336 113.212L83.2866 129.625C83.2866 129.625 108.631 117.945 106.952 113.823C105.273 109.7 90.1572 113.212 90.1572 113.212H90.2336Z" fill="#7F0F27"/>
<path fill-rule="evenodd" clip-rule="evenodd" d="M59.6215 123.747C57.6366 121.381 56.1862 118.709 55.1174 115.808L64.8889 100.845C65.0416 102.83 66.5684 105.884 69.393 108.632L59.6215 123.747Z" fill="#7F0F27"/>
<path fill-rule="evenodd" clip-rule="evenodd" d="M55.118 115.808C53.8966 112.22 53.4386 108.555 55.347 106.494C56.8738 104.815 58.7823 103.593 59.0877 102.448C59.0877 94.7378 64.9659 95.1958 64.9659 95.1958C64.8132 96.799 64.8132 98.4021 64.8895 100.005C64.8895 100.311 64.8895 100.54 64.8895 100.845L55.118 115.808Z" fill="#1F233E"/>
<path fill-rule="evenodd" clip-rule="evenodd" d="M76.2634 113.135L76.0344 113.517C74.2786 114.815 66.6446 120.006 60.6901 124.815C60.3084 124.51 59.9267 124.128 59.6213 123.747L69.3928 108.631C71.3777 110.54 73.7442 112.067 76.2634 113.135Z" fill="#F5F5F5"/>
<path opacity="0.38" fill-rule="evenodd" clip-rule="evenodd" d="M60.6903 124.816C57.4077 121.533 55.1938 117.334 54.2777 112.754L69.393 118.25C66.4157 120.388 63.5148 122.525 60.6903 124.816Z" fill="#F5F5F5"/>
<path opacity="0.2" fill-rule="evenodd" clip-rule="evenodd" d="M76.4927 113.212L69.3931 118.25L54.2778 112.754C53.8198 110.235 54.0488 107.944 55.3466 106.494C56.568 105.12 58.0948 104.051 58.7819 103.059L67.1793 105.96C69.5458 109.166 72.7521 111.685 76.4164 113.212H76.4927Z" fill="black"/>
<path fill-rule="evenodd" clip-rule="evenodd" d="M103.211 122.22L96.7219 117.487L107.868 100.234C108.02 100.998 108.097 101.685 108.097 102.448C108.402 103.593 110.387 104.738 111.761 106.494C112.066 106.876 112.372 107.257 112.524 107.715L103.211 122.22Z" fill="#7F0F27"/>
<path fill-rule="evenodd" clip-rule="evenodd" d="M96.7225 117.487L90.6917 113.212C98.86 109.853 102.677 102.983 102.295 100.005C102.372 98.4023 102.295 96.7991 102.143 95.196C102.143 95.196 106.799 94.8143 107.868 100.234L96.7225 117.487Z" fill="#1F233E"/>
<path opacity="0.38" fill-rule="evenodd" clip-rule="evenodd" d="M106.494 124.816C99.6229 119.319 90.6912 113.365 90.6912 113.212C91.7599 112.754 92.8287 112.22 93.8211 111.609L111.15 117.945C110.081 120.541 108.555 122.907 106.494 124.816Z" fill="#F5F5F5"/>
<path opacity="0.2" fill-rule="evenodd" clip-rule="evenodd" d="M111.15 117.945L93.8213 111.609C97.2566 109.701 100.005 106.723 101.684 103.212L111.99 106.8C113.975 109.319 112.983 113.976 111.15 117.945Z" fill="black"/>
<path fill-rule="evenodd" clip-rule="evenodd" d="M105.654 120.464C104.967 120.464 104.356 119.854 104.356 119.167C104.356 118.48 104.967 117.869 105.654 117.869C106.341 117.869 106.952 118.48 106.952 119.167V119.243C106.875 119.93 106.341 120.464 105.654 120.464ZM61.1478 120.464C60.4607 120.464 59.85 119.854 59.85 119.167C59.85 118.48 60.4607 117.869 61.1478 117.869C61.8348 117.869 62.4455 118.48 62.4455 119.167V119.243C62.3692 119.93 61.8348 120.464 61.1478 120.464Z" fill="white"/>
<path opacity="0.1" fill-rule="evenodd" clip-rule="evenodd" d="M55.8046 165.887L103.593 141.076L119.625 171.917L71.7596 196.728L55.8046 165.887ZM55.4229 170.467L57.1023 169.246L91.9133 234.898L90.2338 236.043L55.4229 170.467Z" fill="black"/>
<path fill-rule="evenodd" clip-rule="evenodd" d="M53.5143 166.955L54.8121 166.192L90.9972 234.974L89.6994 235.738L53.5143 166.955Z" fill="#EEBFA4"/>
<path fill-rule="evenodd" clip-rule="evenodd" d="M54.7358 166.192L102.219 141.152L117.793 171.383L70.3855 196.422L54.7358 166.192Z" fill="white"/>
<path fill-rule="evenodd" clip-rule="evenodd" d="M70.3852 196.422L69.3928 194.438L116.724 169.245L117.792 171.383L70.3852 196.422ZM68.095 191.995L66.8736 189.704L114.204 164.512L115.426 166.803L68.095 191.995ZM65.5758 187.185L64.4307 184.895L111.761 159.703L112.983 161.993L65.5758 187.185ZM63.2856 182.452L62.0642 180.162L109.395 154.97L110.54 157.26L63.2856 182.452ZM60.8427 177.872L59.6213 175.582L106.952 150.389L108.173 152.603L60.8427 177.872ZM58.3235 173.062L57.1784 170.772L104.509 145.58L105.654 147.87L58.3235 173.062ZM55.957 168.482L54.8119 166.192L66.5682 159.932L102.219 141.152L103.288 143.214L55.957 168.482Z" fill="#DD1F26"/>
<path fill-rule="evenodd" clip-rule="evenodd" d="M60.3087 176.88L54.7358 166.192L76.7217 154.588L85.3481 170.849L63.2859 182.605L60.3087 176.88Z" fill="#0B61A5"/>
<path fill-rule="evenodd" clip-rule="evenodd" d="M57.3317 166.497L57.7134 166.726L58.2478 166.573L58.0951 167.108L58.4005 167.566H57.8661L57.5607 167.948L57.408 167.49L56.8737 167.337L57.3317 167.032V166.497ZM60.8433 164.589L61.3014 164.894L61.7594 164.741L61.6831 165.199L61.9121 165.657H61.454L61.1487 166.115L60.9197 165.581L60.4616 165.428L60.8433 165.123V164.589ZM64.355 162.68L64.813 162.986L65.3474 162.833L65.1947 163.291L65.5001 163.749H64.9657L64.6603 164.207L64.5076 163.749L63.9733 163.52L64.355 163.215V162.68ZM67.9429 160.772L68.401 161.077L68.859 160.924L68.7063 161.459L69.0117 161.84H68.4773L68.172 162.298L68.0193 161.84L67.4849 161.688L67.9429 161.306V160.772ZM71.4546 158.94L71.9126 159.169L72.447 159.016L72.2943 159.55L72.5997 160.008H72.0653L71.7599 160.39L71.5309 159.932L71.0729 159.779L71.4546 159.398V158.94ZM75.0425 157.031L75.4242 157.336L75.9586 157.184L75.8059 157.642L76.1113 158.1H75.5769L75.2716 158.558L75.1189 158.023L74.5845 157.871L75.0425 157.565V157.031ZM60.0036 166.955L60.3853 167.261L60.9197 167.108L60.767 167.642L61.0723 168.1H60.538L60.2326 168.482L60.0799 168.024L59.5456 167.871L59.9273 167.49L60.0036 166.955ZM63.5152 165.123L63.9733 165.428L64.4313 165.276L64.2786 165.734L64.584 166.192H64.1259L63.7442 166.65L63.5916 166.115L63.1335 165.963L63.5152 165.657V165.123ZM67.0269 163.215L67.4849 163.52L68.0193 163.367L67.8666 163.825L68.172 164.283H67.6376L67.3322 164.741L67.1032 164.283L66.6452 164.054L67.0269 163.749V163.215ZM70.6148 161.306L71.0729 161.611L71.5309 161.459L71.3782 161.993L71.6836 162.375H71.1492L70.8439 162.833L70.6912 162.375L70.1568 162.222L70.6148 161.84V161.306ZM74.1265 159.474L74.5845 159.703L75.0425 159.55L74.9662 160.085L75.2716 160.543H74.7372L74.4318 160.924L74.2028 160.466L73.7448 160.314L74.1265 160.008V159.474ZM58.8585 169.551L59.3929 169.78L59.8509 169.627L59.6982 170.161L60.0036 170.62H59.5456L59.1639 171.001L59.0112 170.543L58.4768 170.39L58.9348 170.085V169.551H58.8585ZM62.4465 167.642L62.9045 167.948L63.4389 167.795L63.2862 168.253L63.5916 168.711H63.0572L62.7518 169.169L62.5228 168.635L62.0648 168.482L62.4465 168.177V167.642ZM66.0344 165.734L66.4161 166.039L66.9505 165.886L66.7978 166.421L67.1032 166.803H66.5688L66.2635 167.261L66.1108 166.803L65.5764 166.573L66.0344 166.268V165.734ZM69.5461 163.825L70.0041 164.131L70.4622 163.978L70.3858 164.512L70.6912 164.894H70.1568L69.8514 165.352L69.6224 164.894L69.1644 164.741L69.5461 164.36V163.825ZM73.134 161.993L73.5157 162.222L74.0501 162.069L73.8974 162.604L74.2028 163.062H73.6684L73.3631 163.444L73.2104 162.986L72.676 162.833L73.0577 162.527L73.134 161.993ZM76.6457 160.085L77.1037 160.39L77.5618 160.237L77.4091 160.695L77.7144 161.153H77.2564L76.8747 161.611L76.722 161.077L76.264 160.924L76.6457 160.619V160.085ZM61.6067 170.009L62.0648 170.314L62.5228 170.161L62.3701 170.696L62.6755 171.154H62.2174L61.8357 171.612L61.6831 171.078L61.225 170.925L61.6067 170.62V170.085V170.009ZM65.1184 168.177L65.5764 168.482L66.1108 168.329L65.9581 168.787L66.2635 169.245H65.7291L65.4237 169.703L65.1947 169.169L64.7367 169.016L65.1184 168.711V168.177ZM68.7063 166.268L69.088 166.573L69.6224 166.421L69.4697 166.955L69.7751 167.337H69.2407L68.9354 167.795L68.7827 167.337L68.2483 167.108L68.7063 166.803V166.268ZM72.218 164.436L72.676 164.665L73.134 164.512L73.0577 165.047L73.3631 165.428H72.8287L72.5233 165.886L72.2943 165.428L71.8363 165.276L72.218 164.894V164.436ZM75.8059 162.527L76.1876 162.833L76.722 162.68L76.5693 163.138L76.8747 163.596H76.3403L76.035 164.054L75.8823 163.52L75.3479 163.367L75.8059 163.062V162.527ZM60.538 172.604L60.996 172.91L61.5304 172.757L61.3777 173.215L61.6831 173.673H61.1487L60.8433 174.131L60.6143 173.597L60.1563 173.444L60.538 173.139V172.604ZM64.1259 170.696L64.584 171.001L65.042 170.849L64.8893 171.307L65.1947 171.765H64.6603L64.355 172.223L64.2023 171.688L63.6679 171.536L64.1259 171.23V170.696ZM67.6376 168.787L68.0956 169.093L68.5537 168.94L68.4773 169.474L68.7827 169.856H68.2483L67.9429 170.314L67.7139 169.856L67.2559 169.627L67.6376 169.322V168.787ZM71.2256 166.955L71.6073 167.184L72.1416 167.032L71.989 167.566L72.2943 168.024H71.7599L71.4546 168.406L71.3019 167.948L70.7675 167.795L71.2256 167.413V166.955ZM74.7372 165.047L75.1952 165.352L75.6533 165.199L75.5769 165.657L75.8823 166.115H75.3479L75.0425 166.573L74.8135 166.039L74.3555 165.886L74.7372 165.581V165.047ZM78.3251 163.138L78.7068 163.444L79.2412 163.291L79.0885 163.749L79.3939 164.207H78.8595L78.5542 164.665L78.4015 164.131L77.8671 163.978L78.2488 163.673L78.3251 163.138ZM63.2099 173.062L63.6679 173.368L64.1259 173.215L63.9733 173.749L64.2786 174.131H63.8206L63.5152 174.589L63.2862 174.131L62.8282 173.978L63.2099 173.597V173.062ZM66.7215 171.23L67.1795 171.459L67.7139 171.307L67.5612 171.841L67.8666 172.299H67.3322L67.0269 172.681L66.7978 172.223L66.3398 172.07L66.7215 171.765V171.23ZM70.3095 169.322L70.7675 169.627L71.2256 169.474L71.0729 169.932L71.3782 170.39H70.8439L70.5385 170.849L70.3858 170.314L69.8514 170.161L70.3095 169.856V169.322ZM73.8211 167.413L74.2791 167.719L74.8135 167.566L74.6608 168.1L74.9662 168.482H74.4318L74.1265 168.94L73.8974 168.482L73.4394 168.253L73.8211 167.948V167.413ZM77.4091 165.505L77.7908 165.81L78.3251 165.657L78.1725 166.192L78.4778 166.573H77.9434L77.6381 167.032L77.4854 166.573L76.951 166.421L77.4091 166.039V165.505ZM62.1411 175.582L62.5991 175.887L63.1335 175.734L62.9808 176.269L63.2862 176.65H62.7518L62.4465 177.108L62.2174 176.65L61.7594 176.421L62.1411 176.116V175.582ZM65.7291 173.749L66.1871 173.978L66.6452 173.826L66.4925 174.36L66.7978 174.818H66.2635L65.9581 175.2L65.8054 174.742L65.271 174.589L65.7291 174.207V173.749ZM69.2407 171.841L69.6988 172.146L70.1568 171.994L70.0805 172.452L70.3858 172.91H69.8514L69.5461 173.368L69.3171 172.833L68.859 172.681L69.2407 172.375V171.841ZM72.8287 169.932L73.2104 170.238L73.7448 170.085L73.5921 170.543L73.8974 171.001H73.3631L73.0577 171.459L72.905 170.925L72.3706 170.772L72.8287 170.467V169.932ZM76.3403 168.024L76.7984 168.329L77.2564 168.177L77.1037 168.711L77.4091 169.093H76.951L76.5693 169.551L76.4167 169.093L75.9586 168.864L76.3403 168.558V168.024ZM79.8519 166.192L80.31 166.421L80.8444 166.268L80.6917 166.803L80.997 167.184H80.4627L80.1573 167.642L79.9283 167.184L79.4702 167.032L79.8519 166.65V166.192ZM64.813 176.116L65.271 176.421L65.8054 176.269L65.6527 176.803L65.9581 177.185H65.4237L65.1184 177.643L64.8893 177.185L64.4313 176.956L64.813 176.65V176.116ZM68.401 174.284L68.7827 174.513L69.3171 174.36L69.1644 174.895L69.4697 175.276H68.9354L68.63 175.734L68.4773 175.276L67.9429 175.124L68.401 174.742V174.284ZM71.9126 172.375L72.3706 172.681L72.8287 172.528L72.7523 172.986L73.0577 173.444H72.5233L72.218 173.902L71.989 173.368L71.5309 173.215L71.9126 172.91V172.375ZM75.4242 170.467L75.8823 170.772L76.4167 170.62L76.264 171.078L76.5693 171.536H76.035L75.7296 171.994L75.5769 171.459L75.0425 171.307L75.4242 171.001V170.467ZM79.0122 168.558L79.4702 168.864L79.9283 168.711L79.7756 169.245L80.081 169.627H79.5466L79.2412 170.085L79.0885 169.627L78.5542 169.398L79.0122 169.093V168.558ZM63.7442 178.635L64.2023 178.941L64.7367 178.788L64.584 179.322L64.8893 179.704H64.355L64.0496 180.162L63.8969 179.704L63.3625 179.475L63.8206 179.17V178.635H63.7442ZM67.3322 176.803L67.7903 177.032L68.2483 176.879L68.172 177.414L68.4773 177.872H67.9429L67.6376 178.253L67.4086 177.795L66.9505 177.643L67.3322 177.261V176.803ZM70.8439 174.895L71.3019 175.2L71.8363 175.047L71.6836 175.505L71.989 175.963H71.4546L71.1492 176.345L70.9202 175.887L70.4622 175.734L70.8439 175.429V174.895ZM74.4318 172.986L74.8899 173.291L75.3479 173.139L75.1952 173.597L75.5006 174.055H74.9662L74.6608 174.513L74.5082 173.978L73.9738 173.826L74.4318 173.52V172.986ZM77.9434 171.078L78.4015 171.383L78.8595 171.23L78.7832 171.765L79.0885 172.146H78.5542L78.2488 172.604L78.0198 172.146L77.5618 171.917L77.9434 171.612V171.078ZM81.5314 169.169L81.9131 169.474L82.4475 169.322L82.2948 169.856L82.6002 170.238H82.0658L81.7604 170.696L81.6078 170.238L81.0734 170.085L81.5314 169.703V169.169Z" fill="white"/>
<path fill-rule="evenodd" clip-rule="evenodd" d="M163.826 191.842L100.158 218.79L100.082 218.714V218.866C100.082 218.866 94.2799 222.149 89.4705 225.584C88.1727 226.5 84.4321 229.554 80.6151 228.409C71.836 226.653 67.9426 210.087 71.836 209.476C76.6454 208.637 76.0347 210.087 77.7905 209.095C80.4624 207.568 78.5539 207.415 78.5539 207.415C78.5539 207.415 74.7369 207.797 74.3552 202.835C74.1262 200.163 78.5539 201.995 81.1494 202.682C87.0276 204.972 92.6004 208.026 97.7915 206.27C97.9442 206.27 98.0969 206.27 98.2496 206.27C106.189 201.079 147.565 174.207 151.916 173.291C156.726 172.223 174.818 187.032 163.826 191.842Z" fill="#F5C7A6"/>
<path fill-rule="evenodd" clip-rule="evenodd" d="M118.327 65.8815C118.785 72.752 114.51 72.4467 112.525 70.4618C111.685 75.2713 110.235 80.9968 107.945 85.1954C105.807 89.0124 102.983 90.6156 100.54 93.4401C93.5927 101.685 91.3789 101.838 83.7449 101.838C76.0346 101.838 73.2863 101.609 66.2631 93.2875C63.9729 90.4629 61.6063 88.9361 59.4688 85.1954C57.0259 80.3097 55.2701 75.1186 54.125 69.7748C52.7509 72.294 47.3308 73.4391 47.8652 65.9578C48.2469 62.9042 41.758 56.4153 47.4835 52.2166C48.5522 51.3769 50.079 51.4532 50.9187 52.522L50.9951 52.5983C49.1629 37.5594 50.0027 8.47388 83.6685 8.47388C117.105 8.47388 117.64 37.1013 115.579 52.293C116.495 51.4532 117.792 51.4532 118.709 52.293C124.434 56.4153 117.945 62.9042 118.327 65.8815Z" fill="#F5C7A6"/>
<path fill-rule="evenodd" clip-rule="evenodd" d="M115.655 51.8347C115.578 51.9874 115.502 52.0637 115.349 52.1401C113.517 52.8271 114.51 54.4303 113.441 58.0182C112.983 59.545 112.525 59.087 111.761 57.6365C113.288 50.9186 113.594 41.6815 111.532 39.544C106.341 34.1239 107.639 30.6122 106.036 27.9403C104.967 24.8867 104.433 19.772 107.41 18.5505C109.471 19.772 111.151 21.4515 112.372 23.5126C116.952 32.5971 116.723 43.9717 115.655 51.8347ZM54.6592 39.544C52.598 41.6815 52.9797 50.9186 54.4301 57.6365C53.6667 59.1633 53.2087 59.6214 52.7507 58.0182C51.7582 54.5066 52.7507 52.8271 50.9185 52.2164C49.8497 43.0556 49.8497 29.3145 57.1784 19.6193C57.6364 19.2376 58.1708 18.8559 58.7052 18.5505C61.7588 19.772 61.3007 24.8867 60.232 27.9403C58.6288 30.6122 59.8503 34.1239 54.6592 39.544Z" fill="#525150"/>
<path fill-rule="evenodd" clip-rule="evenodd" d="M89.852 71.9885C89.0886 74.0497 88.1726 73.0573 85.4243 74.5077C84.0502 74.9658 82.6761 74.9658 81.302 74.5077C78.9354 73.2863 77.5613 73.3626 76.7979 71.3015C76.6452 69.0876 77.943 67.4845 78.5537 66.1867C80.1569 60.3849 81.0729 54.4304 81.2256 48.3995C81.0729 46.5674 85.577 46.5674 85.5007 48.3995C85.6533 54.4304 86.4931 60.3849 88.0199 66.1867C88.6306 67.2554 90.3101 68.7059 89.852 71.9885Z" fill="url(#paint0_linear_5_8)"/>
<path fill-rule="evenodd" clip-rule="evenodd" d="M50.384 65.8814C49.7732 66.1868 49.6205 64.431 49.3152 62.2935C49.0098 60.156 48.7808 58.4001 49.3152 58.0184C49.8496 57.6367 50.613 59.1635 50.842 61.3011C51.071 63.4386 50.9183 65.4997 50.384 65.8814ZM114.891 65.5761C115.426 66.0341 115.884 64.2783 116.418 62.2171C116.952 60.156 117.487 58.4001 116.952 57.9421C116.418 57.4841 115.502 58.8582 114.891 60.9957C114.28 63.1332 114.28 65.118 114.891 65.5761Z" fill="#DDAF8F"/>
<path fill-rule="evenodd" clip-rule="evenodd" d="M69.6226 52.4457C71.9127 52.3693 73.7449 54.2015 73.8212 56.4917C73.8976 58.7819 72.0654 60.614 69.7752 60.6904C67.485 60.7667 65.6529 58.9345 65.5765 56.6444C65.5765 56.568 65.5765 56.568 65.5765 56.4917C65.5765 54.2778 67.4087 52.4457 69.6226 52.4457Z" fill="#2D2321"/>
<path fill-rule="evenodd" clip-rule="evenodd" d="M68.5528 53.8958C69.1636 53.8958 69.6979 54.4301 69.6979 55.0408C69.6979 55.6516 69.1636 56.1859 68.5528 56.1859C67.9421 56.1859 67.4077 55.6516 67.4077 55.0408C67.3314 54.4301 67.7894 53.9721 68.4001 53.8958C68.4765 53.8958 68.4765 53.8958 68.5528 53.8958Z" fill="white"/>
<path fill-rule="evenodd" clip-rule="evenodd" d="M69.7748 58.8581C73.9735 59.0108 77.4088 60.2323 77.3325 61.6064C77.2561 62.9805 73.8208 63.8966 69.6221 63.7439C65.4234 63.5912 61.9881 62.3698 62.0645 60.9957C62.1408 59.6215 65.5761 58.7055 69.7748 58.8581Z" fill="#F5C7A6"/>
<path fill-rule="evenodd" clip-rule="evenodd" d="M97.5623 52.5216C99.8525 52.3689 101.837 54.0484 101.99 56.3386C102.143 58.6288 100.463 60.6136 98.173 60.7663C95.8828 60.919 93.898 59.2395 93.7453 56.9493C93.7453 56.873 93.7453 56.873 93.7453 56.7966C93.5927 54.5828 95.3485 52.6743 97.5623 52.5216Z" fill="#2D2321"/>
<path d="M96.5696 56.2625C97.1599 56.2625 97.6384 55.784 97.6384 55.1938C97.6384 54.6035 97.1599 54.125 96.5696 54.125C95.9794 54.125 95.5009 54.6035 95.5009 55.1938C95.5009 55.784 95.9794 56.2625 96.5696 56.2625Z" fill="white"/>
<path fill-rule="evenodd" clip-rule="evenodd" d="M98.0968 58.8581C102.372 58.7055 105.731 59.6215 105.807 60.9957C105.883 62.3698 102.525 63.5912 98.3259 63.7439C94.1272 63.8966 90.6919 62.9805 90.6155 61.6064C90.5392 60.2323 93.8981 59.0108 98.0968 58.8581Z" fill="#F5C7A6"/>
<path fill-rule="evenodd" clip-rule="evenodd" d="M102.907 50.995L98.7842 50.2316C98.2499 50.1553 97.6391 50.079 97.1048 50.079C96.494 50.1553 95.9597 50.2316 95.3489 50.308L91.1502 51.0714C91.4556 50.3843 91.9136 49.6973 92.5244 49.2392C93.1351 48.7048 93.8221 48.3231 94.5092 48.0178C95.2726 47.7124 96.1887 47.4834 97.0284 47.4834C97.4865 47.4834 97.9445 47.5597 98.4025 47.6361C98.7842 47.7124 99.1659 47.7888 99.5476 47.8651C100.922 48.2468 102.296 48.7812 103.594 49.3919C104.891 49.9263 106.113 50.537 107.258 51.3004C105.731 51.1477 104.281 51.1477 102.907 50.995ZM70.0805 50.079C69.4697 50.079 68.9354 50.1553 68.3246 50.2316L64.2786 50.995C62.9045 51.3004 61.3777 51.2241 59.9272 51.3767C61.0723 50.6133 62.2938 50.0026 63.5152 49.4682C64.813 48.8575 66.1871 48.3231 67.6376 47.9414C68.0193 47.8651 68.401 47.7888 68.7827 47.7124C69.2407 47.6361 69.6987 47.5597 70.1568 47.5597C70.9965 47.5597 71.9126 47.7888 72.676 48.0941C73.3631 48.3995 74.0501 48.7812 74.6608 49.3156C75.2716 49.7736 75.7296 50.3843 76.035 51.0714L71.7599 50.308C71.2255 50.2316 70.6148 50.1553 70.0805 50.079Z" fill="#DDAF8F"/>
<path fill-rule="evenodd" clip-rule="evenodd" d="M73.4393 81.302C76.8746 81.8364 80.3099 82.1417 83.7452 82.0654C86.9515 82.1417 90.1578 81.9127 93.364 81.302C93.364 81.302 92.448 87.0275 83.5925 87.0275C74.7371 87.0275 73.5157 81.3783 73.5157 81.3783L73.4393 81.302Z" fill="white"/>
<path fill-rule="evenodd" clip-rule="evenodd" d="M100.768 63.2095L100.158 63.2859H99.4706L98.8599 63.3622H97.5621L96.8751 63.2095L96.2643 63.0568C96.0353 63.0568 95.8063 63.0569 95.6536 62.9042C94.8139 62.6751 93.9741 62.3698 93.2107 61.9881L95.73 62.5225L96.3407 62.6751H96.9514L97.6385 62.8278H100.768C101.608 62.8278 102.448 62.6751 103.288 62.5225C102.448 62.9042 101.608 63.1332 100.768 63.2095ZM88.554 41.3C86.9509 41.3 85.3477 41.4527 83.7446 41.6817L78.9352 42.1397C77.3321 42.2924 75.7289 42.2924 74.1258 42.1397L78.9352 41.758L83.7446 41.2237C85.3477 41.071 86.9509 40.9946 88.554 40.9946C90.1572 40.9946 91.7603 41.1473 93.3634 41.3763L88.554 41.3ZM70.9195 63.0568L70.3088 63.2095L69.6217 63.2859C69.3927 63.3622 69.1637 63.2859 69.011 63.2859L68.324 63.3622C68.0949 63.4385 67.8659 63.3622 67.7132 63.3622H67.0262L66.4155 63.2095C65.5757 63.0569 64.736 62.8278 63.8962 62.5225C64.965 62.6751 65.9574 62.8278 67.0262 62.9042H68.9347L69.6217 62.8278L70.2325 62.7515L70.8432 62.6751L71.4539 62.5225L73.9731 61.9881C73.2097 62.3698 72.37 62.6751 71.5302 62.9042L70.9195 63.0568ZM69.24 77.7904C70.0798 76.9507 70.9195 76.1873 71.8356 75.5002C72.7517 74.7368 73.5914 73.8208 74.3548 72.9047C75.1945 71.9886 75.7289 70.8435 76.1106 69.6984C75.8816 70.9199 75.3472 72.1413 74.5838 73.1337C73.8968 74.0498 73.057 74.9659 72.2173 75.7293L69.7744 78.0958C69.6217 78.3248 69.3927 78.4775 69.24 78.7065C69.0874 78.8592 68.9347 79.0882 68.782 79.3172C68.7056 79.3936 68.7056 79.5463 68.6293 79.6226C68.6293 79.7753 68.6293 79.8516 68.6293 80.0043C68.6293 80.2333 68.6293 80.4623 68.782 80.6914C68.553 80.4623 68.4003 80.2333 68.324 79.928C68.2476 79.6989 68.2476 79.3936 68.324 79.1646C68.553 78.6302 68.8583 78.1721 69.24 77.7904ZM83.5156 45.1933L85.3477 45.0406L87.1799 44.888C88.4013 44.8116 89.6228 44.7353 90.8442 44.7353C87.2562 45.2697 83.5919 45.575 79.9276 45.6514L76.2633 45.4223C78.7062 45.2697 81.0727 45.1933 83.5156 45.1933ZM90.3862 69.6984C90.7679 70.8435 91.3022 71.9886 92.142 72.9047C92.9054 73.8208 93.7451 74.6605 94.6612 75.4239C95.5773 76.111 96.417 76.8744 97.1804 77.7141C97.5621 78.1721 97.8675 78.6302 98.0202 79.1646C98.0965 79.3936 98.0965 79.6989 98.0202 79.928C97.9438 80.2333 97.8675 80.4623 97.6385 80.6914C97.7911 80.4623 97.7911 80.157 97.7911 79.928C97.7911 79.8516 97.7911 79.6989 97.7911 79.6226C97.7148 79.5463 97.7148 79.3936 97.6385 79.3172C97.4858 79.0882 97.3331 78.8592 97.1804 78.7065C97.0277 78.4775 96.7987 78.3248 96.646 78.0958L94.2795 75.8056C93.4398 74.9659 92.6 74.0498 91.913 73.0574C91.1496 72.0649 90.6152 70.9199 90.3862 69.6984Z" fill="#EDBC9A"/>
<path fill-rule="evenodd" clip-rule="evenodd" d="M85.1949 110.311C85.1949 109.624 84.8132 109.09 84.2024 108.784C84.5078 109.929 83.9734 111.151 82.9047 111.685C82.5993 111.838 82.2939 111.914 81.9886 111.914C80.4618 104.662 70.3086 105.96 72.5224 96.4935C74.66 96.5698 79.9274 99.8525 83.21 95.9591C86.6453 99.6998 93.1342 96.4935 94.661 96.4935C95.119 103.288 89.5462 108.708 85.1949 110.311ZM80.0801 89.2412C82.3703 89.8519 84.7368 89.8519 87.027 89.2412L85.1185 93.6689C85.1185 93.6689 83.9734 92.1421 83.21 93.0582C83.2864 93.6689 81.9886 93.6689 81.9886 93.6689C81.9886 93.6689 80.7671 89.8519 80.0801 89.2412Z" fill="#525150"/>
<path fill-rule="evenodd" clip-rule="evenodd" d="M84.356 0C86.5698 0 88.3257 0.3817 88.3257 0.916079C88.3257 1.45046 86.5698 1.83216 84.356 1.83216C82.1421 1.83216 80.4626 1.45046 80.4626 0.916079C80.4626 0.3817 82.2185 0 84.356 0Z" fill="#252525"/>
<path fill-rule="evenodd" clip-rule="evenodd" d="M83.5918 34.2768C67.255 34.2768 53.5902 37.3304 50.3839 41.3C50.3839 26.0321 52.2924 6.64175 69.0108 4.12253C75.8814 3.13011 78.4006 0.91626 84.6605 0.91626C90.386 0.91626 93.2106 2.67208 99.0124 3.74083C115.807 6.94711 116.723 25.7267 116.8 41.3C113.517 37.3304 99.9285 34.2768 83.5918 34.2768Z" fill="#F0F0F0"/>
<path fill-rule="evenodd" clip-rule="evenodd" d="M55.8804 38.0936C53.8192 38.7043 51.9107 39.7731 50.3839 41.2999C50.3839 30.9177 51.3 18.5506 57.1782 10.993C54.8116 19.8484 54.3536 29.0855 55.8804 38.0936ZM111.303 38.0936C111.914 34.0476 112.83 23.9707 108.937 9.31348L109.7 9.61883C116.265 17.1765 116.8 30.0016 116.8 41.2999C115.273 39.7731 113.364 38.628 111.303 38.0936Z" fill="black"/>
<path fill-rule="evenodd" clip-rule="evenodd" d="M84.1268 33.3605C63.057 33.3605 48.4761 40.9944 49.0104 41.5288C49.5448 42.0632 62.4462 39.0096 84.1268 39.0096C107.792 39.0096 116.189 42.4449 117.106 41.5288C118.022 40.6127 105.197 33.2841 84.1268 33.3605Z" fill="#232A2C"/>
<path fill-rule="evenodd" clip-rule="evenodd" d="M90.8447 27.4062C89.8523 28.1696 88.7072 28.6276 87.4858 28.933C86.188 29.2384 84.8902 29.5437 84.3558 30.4598L84.0505 30.9942L83.7451 30.4598C83.2107 29.5437 81.9893 29.2384 80.6915 28.933C79.4701 28.704 78.2486 28.1696 77.2562 27.4062C76.1875 26.4901 75.6531 25.116 75.6531 23.2839V9.0083H92.4478V23.2839C92.4478 25.116 91.9135 26.4901 90.8447 27.4062Z" fill="black"/>
<path fill-rule="evenodd" clip-rule="evenodd" d="M75.958 23.2837V9.31348H92.1421V23.2837C92.1421 29.5435 85.7295 27.5587 84.05 30.3069C82.3706 27.5587 75.958 29.5435 75.958 23.2837Z" fill="#E9B209"/>
<path fill-rule="evenodd" clip-rule="evenodd" d="M87.3326 22.2915L84.05 19.5433L80.7674 22.2915H75.958V15.9553H92.1421V22.2915H87.3326Z" fill="#CA1517"/>
<path fill-rule="evenodd" clip-rule="evenodd" d="M92.1421 15.955H75.958V9.31348H92.1421V15.955Z" fill="#151920"/>
<path fill-rule="evenodd" clip-rule="evenodd" d="M88.4782 26.5662L88.4018 25.8028L88.7072 25.7265L88.4782 26.5662ZM87.3331 25.1921V26.7189L86.7987 27.0242L87.0277 26.4899H87.3331H86.7987L87.0277 25.1158L86.0353 25.6501L85.7299 25.2684L86.0353 25.6501V26.1082L85.6536 25.6501V25.2684L86.9514 24.8867L85.4246 23.3599L85.9589 23.0546L87.3331 24.7341L88.3255 24.276L88.7072 24.5814V25.1921L88.3255 24.8104L87.4094 24.9631L88.7072 25.7265L88.1728 25.9555L87.3331 25.1921ZM84.0505 14.0465H83.8978C83.4397 14.2755 82.9054 14.1991 82.5237 13.8938C82.6763 13.8938 82.829 13.8938 82.9817 13.8938C82.6 13.8175 82.2946 13.6648 82.0656 13.3594C82.5237 13.5884 83.058 13.7411 83.5924 13.7411C83.4397 13.3594 83.058 12.9777 82.6763 13.3594C81.9893 12.2143 82.9817 11.909 83.6688 12.5197L84.1268 13.8938H84.0505V14.0465ZM82.7527 23.2836L81.1495 24.8104L82.4473 25.1921V25.5738L82.0656 26.0318V25.5738L82.371 25.1921L82.0656 25.5738L81.0732 25.0394L81.3022 26.4135H80.7678H81.0732L81.3022 26.9479L80.7678 26.7189V25.1158L80.0044 25.8791L79.3937 25.6501L80.6915 24.8867L79.7754 24.7341L79.3937 25.1158V24.505L79.7754 24.1997L80.7678 24.6577L82.142 22.9782L82.7527 23.2836ZM79.6227 26.4899L79.3174 25.7265V25.6501L79.6991 25.8028L79.6227 26.4899Z" fill="#E52421"/>
<path fill-rule="evenodd" clip-rule="evenodd" d="M89.7005 13.4355C90.0822 13.7409 90.3112 14.2753 90.2348 14.7333C90.2348 17.0235 87.792 17.9396 85.5018 18.1686C85.4254 19.2374 85.1964 20.3061 84.9674 21.3749L86.9522 23.5124L85.8071 23.3597V24.8102L84.9674 23.4361C84.9674 26.7187 85.8835 27.024 86.6469 26.7187C86.4942 27.3294 85.3491 27.6348 84.8147 27.1767L84.0513 28.0165L83.2879 27.2531C82.7535 27.6348 81.6084 27.3294 81.5321 26.7187C82.2955 27.024 83.1352 26.7187 83.1352 23.4361L82.2191 24.8102V23.2834L81.1504 23.5124L83.1352 21.3749C82.9062 20.3061 82.7535 19.2374 82.6772 18.1686C80.3107 17.9396 77.8678 17.0999 77.8678 14.7333C77.7914 14.2753 78.0205 13.7409 78.4022 13.4355C78.1731 13.3592 77.9441 13.1302 77.8678 12.8248C78.6312 13.2829 80.158 11.7561 81.2267 13.4355C81.074 14.0463 80.5397 14.3516 79.929 14.1989C79.6999 14.1226 79.4709 13.9699 79.3182 13.8172C78.7838 14.5043 78.7075 16.2601 82.6008 16.7182C82.7535 15.1914 83.6696 15.1914 83.5933 14.1226C83.6696 14.0463 83.8223 13.9699 83.8986 13.8936C83.8986 13.4355 83.1352 12.4431 83.5169 12.2141C83.8986 11.9851 84.891 12.9775 85.6544 12.6721C85.5018 12.9012 85.2727 13.0538 85.0437 13.1302C85.4254 14.2753 85.6544 15.4967 85.6544 16.7182C89.4714 16.2601 89.3188 14.428 88.7844 13.8172C88.4027 14.2753 87.792 14.428 87.2576 14.0463C87.0286 13.8936 86.8759 13.6646 86.8759 13.4355C88.021 11.7561 89.4714 13.2829 90.2348 12.8248C90.1585 13.1302 89.9295 13.3592 89.7005 13.4355Z" fill="black"/>
<path fill-rule="evenodd" clip-rule="evenodd" d="M89.4705 24.1998V14.7336H90.2339V24.8105L89.4705 24.1998ZM88.4781 23.36V16.4895H89.2415V24.0471L88.4781 23.36ZM87.4857 22.5203V17.3292H88.2491V23.131L87.4857 22.5203ZM86.5696 21.6806V17.6346H87.333V22.2913L86.5696 21.6806ZM85.5772 20.8408V17.6346H86.3406V21.4516L85.5772 20.8408ZM81.7602 21.4516V17.6346H82.5236V20.8408L81.7602 21.4516ZM80.8441 22.2913V17.6346H81.6075V21.6806L80.8441 22.2913ZM79.8517 23.131V17.3292H80.6151V22.5203L79.8517 23.131ZM78.7829 24.0471V16.6421H79.5463V23.2837L78.7829 24.0471ZM77.7905 24.8868V14.7336H78.5539V24.1998L77.7905 24.8868Z" fill="black"/>
<path fill-rule="evenodd" clip-rule="evenodd" d="M90.1576 24.8106V15.4208C90.2339 15.1918 90.2339 14.8864 90.2339 14.6574V14.5811H90.3103V24.8106H90.1576ZM82.5236 18.169H82.5999V20.7646L82.4473 20.9173L82.5236 18.169ZM81.7602 18.0927H81.9129V21.3753L81.6839 21.528V18.0927H81.7602ZM81.4548 18.0927H81.6839V21.6043L81.4548 21.757V17.94V18.0927ZM80.6914 17.8637H80.9205V22.215L80.6914 22.3677V17.8637ZM80.5388 17.7873H80.6914V22.3677L80.5388 22.5967V17.7873ZM79.7754 17.482H79.928V23.0548L79.7754 23.2075V17.482ZM79.5463 17.3293L79.699 17.4056V23.2838L79.5463 23.4365V17.3293ZM78.7829 16.7949L78.9356 16.9476V23.8945L78.7829 24.0472V16.7949ZM78.5539 16.5659L78.7066 16.7186V24.1235L78.5539 24.2762V16.6422V16.5659ZM77.7905 14.6574H77.8669V14.7337C77.8669 14.9628 77.8669 15.2681 77.9432 15.4971V24.7343L77.7905 24.8869V14.6574ZM87.4094 17.8637V22.4441L87.1803 22.215V17.94L87.4094 17.8637ZM87.6384 17.7873V22.5204L87.4094 22.3677V17.7873L87.6384 17.711V17.7873ZM88.4018 17.482V23.2075L88.1728 23.0548V17.5583L88.3254 17.482H88.4018ZM88.5545 17.3293V23.4365L88.4018 23.2838V17.4056L88.5545 17.3293ZM89.3179 16.7949V24.0472L89.1652 23.8945V16.9476L89.3179 16.7949ZM89.5469 16.5659V24.1999L89.3942 24.1235V16.7186L89.5469 16.5659ZM86.4933 18.0927H86.646V21.757L86.4933 21.6043V18.0927ZM86.2643 21.3753V18.0927H86.4169V21.528L86.2643 21.3753ZM85.5009 18.169H85.6535V20.9936L85.5009 20.8409V18.169Z" fill="white"/>
<path fill-rule="evenodd" clip-rule="evenodd" d="M90.3097 12.8253C90.2334 13.1307 90.0807 13.3597 89.8517 13.5124C90.157 13.8177 90.3097 14.2758 90.3097 14.7338C90.3097 15.8026 89.699 16.795 88.7829 17.3294C87.7905 17.8638 86.7217 18.1691 85.5766 18.2455C85.5003 19.2379 85.2713 20.3066 85.0422 21.2991L87.1798 23.6656L86.4164 23.5129L87.3324 24.658L88.3249 24.2L88.7829 24.5053V25.3451L88.3249 24.887L87.6378 24.9634L88.8592 25.7268L88.4775 26.7955L88.3249 25.9558L88.0958 26.0321L87.3324 25.2687V26.7955L86.6454 27.1772L86.8744 26.5665H86.7217L86.9507 25.2687L86.1873 25.6504L86.111 26.2611L85.5766 25.6504V25.1924L86.8744 24.887L85.9583 23.971V25.116L85.0422 23.6656C85.0422 25.2687 85.2713 26.2611 85.8056 26.6428C86.0347 26.7955 86.34 26.7955 86.569 26.6428H86.7217V26.7955C86.6454 27.1009 86.4164 27.3299 86.111 27.4062C85.653 27.5589 85.1949 27.5589 84.8132 27.3299L84.0498 28.0933L83.2864 27.3299C82.9047 27.5589 82.3703 27.5589 81.9886 27.3299C81.6833 27.2536 81.4543 27.0245 81.3779 26.7192V26.6428H81.5306C81.7596 26.7955 82.065 26.7955 82.294 26.6428C82.8284 26.2611 83.0574 25.2687 83.0574 23.6656L82.1413 25.116V23.971L81.2252 24.887L82.523 25.1924V25.6504L81.9886 26.2611V25.6504L81.1489 25.1924L81.3779 26.5665H81.2252L81.4543 27.1772L80.6909 26.7955V25.2687L79.9275 26.0321L79.7748 25.9558L79.6221 26.7955L79.2404 25.7268L80.4619 24.9634L79.6985 24.887L79.3168 25.3451V24.5817L79.7748 24.2L80.7672 24.658L81.6833 23.5129L80.9199 23.6656L83.0574 21.3754C82.8284 20.383 82.5994 19.3142 82.523 18.3218C81.3779 18.2455 80.3092 17.8638 79.3168 17.3294C78.4007 16.795 77.79 15.8026 77.79 14.7338C77.79 14.2758 77.9426 13.8177 78.248 13.5124C78.019 13.3597 77.8663 13.1307 77.79 12.8253L77.7136 12.5963L77.8663 12.749C78.1717 12.9017 78.6297 12.9017 78.9351 12.749C79.6985 12.52 80.5382 12.2909 81.2252 13.436C81.1489 13.8941 80.8436 14.2758 80.3855 14.3521C80.0038 14.4285 79.5458 14.2758 79.3168 13.9704C79.1641 14.3521 79.1641 14.7338 79.3168 15.1155C79.4694 15.6499 80.2328 16.337 82.523 16.6423C82.5994 16.1079 82.8284 15.5736 83.1337 15.1919C83.3628 14.8865 83.5154 14.5811 83.5154 14.1994C83.4391 14.1994 83.3628 14.1994 83.2864 14.1994C82.9811 14.1994 82.752 14.1231 82.523 13.9704L82.2177 13.8177H82.523C82.294 13.7414 82.1413 13.5887 81.9886 13.3597L81.7596 13.0543L82.1413 13.2834C82.523 13.436 82.9047 13.5887 83.3628 13.5887C83.2864 13.436 83.2101 13.3597 83.0574 13.2834C82.9047 13.2834 82.7521 13.2834 82.6757 13.436H82.5994C82.1413 12.6726 82.4467 12.3673 82.5994 12.2909C82.8284 12.1383 83.1337 12.1383 83.3628 12.2146V12.1383C83.6681 11.9856 84.0498 12.0619 84.2788 12.2909C84.6605 12.5963 85.1949 12.749 85.653 12.5963L85.882 12.4436L85.7293 12.6726C85.5766 12.9017 85.3476 13.0543 85.1186 13.1307C85.5003 14.2758 85.7293 15.4209 85.7293 16.6423C87.8668 16.337 88.6302 15.6499 88.7829 15.1155C88.9356 14.7338 88.9356 14.3521 88.7829 13.9704C88.5539 14.2758 88.0958 14.4285 87.7141 14.3521C87.2561 14.2758 86.8744 13.9704 86.7981 13.5124V13.3597C87.5615 12.2146 88.4775 12.4436 89.1646 12.5963C89.47 12.749 89.8517 12.8253 90.2334 12.6726L90.386 12.52L90.3097 12.8253ZM88.4012 24.8107L88.6302 25.0397V24.5817L88.4012 24.429V24.8107ZM79.4694 24.5817V25.0397L79.6985 24.8107V24.429L79.4694 24.5817ZM82.523 13.6651C82.752 13.8177 82.9811 13.8941 83.2101 13.7414C82.9811 13.7414 82.752 13.7414 82.523 13.6651ZM83.5154 13.8941L82.9047 13.9704C83.0574 14.0468 83.1337 14.0468 83.2864 14.0468C83.6681 13.9704 83.7445 13.8941 83.7445 13.8177V13.6651H83.5918C83.5918 13.7414 83.5918 13.8177 83.5154 13.8941ZM88.5539 26.2611L88.7066 25.8031L88.4775 25.8794L88.5539 26.2611ZM86.9507 26.8719L87.2561 26.7192V26.5665H87.1034L86.9507 26.8719ZM85.7293 25.6504L85.9583 25.9558V25.5741L85.7293 25.2687V25.6504ZM85.9583 23.8183L87.1034 24.887L85.8056 25.2687L86.111 25.5741L87.1798 24.9634L86.8744 26.4902H87.2561V24.9634L88.1722 25.8794L88.6302 25.7268L87.2561 24.9634L88.2485 24.7344V24.3527L87.2561 24.8107L86.2637 23.5129L85.9583 23.4366V23.8183ZM82.1413 25.9558L82.3703 25.6504V25.3451L82.1413 25.6504V25.9558ZM81.2252 26.8719L81.0726 26.5665H80.8436V26.7192L81.2252 26.8719ZM79.5458 26.3375V25.9558H79.3931L79.5458 26.3375ZM80.7672 24.8107L79.7748 24.429V24.8107L80.7672 24.9634L79.4694 25.7268L79.8511 25.9558L80.7672 25.116V26.3375H81.1489L80.8436 24.887L81.9123 25.4977L82.2177 25.1924L80.9199 24.8107L82.065 23.7419V23.3602H81.7596L80.7672 24.8107ZM82.5994 17.1767H82.4467V16.795C80.1565 16.566 79.3931 15.8789 79.0114 15.2682C78.7824 14.7338 78.8587 14.1994 79.1641 13.7414L79.2404 13.6651L79.3168 13.7414C79.5458 14.0468 79.9275 14.1994 80.3092 14.1231C80.6909 14.0468 80.9199 13.8177 81.0726 13.5124C80.3855 12.52 79.5458 12.749 78.8587 12.9017C78.5534 12.978 78.248 13.0543 77.9426 12.978C78.019 13.1307 78.1717 13.2834 78.3243 13.3597L78.477 13.436L78.4007 13.5124C78.019 13.8177 77.8663 14.2758 77.8663 14.7338C77.8663 15.8026 78.477 16.7187 79.3931 17.1767C80.3855 17.7111 81.4543 18.0164 82.5994 18.0928V18.1691C82.6757 19.2379 82.9047 20.3066 83.2101 21.3754L81.3016 23.4366L82.294 23.2076V24.5053L83.2101 23.1312V23.3602C83.2101 25.2687 82.9047 26.4138 82.3703 26.7192C82.1413 26.8719 81.836 26.9482 81.6069 26.8719C81.6833 27.0245 81.836 27.1772 81.9886 27.2536C82.3703 27.4062 82.8284 27.3299 83.1337 27.1009L83.9735 27.8643L84.7369 27.1009H84.8132C85.1186 27.3299 85.5766 27.4062 85.9583 27.2536C86.1873 27.1772 86.34 27.0245 86.4164 26.8719C86.1873 26.9482 85.882 26.8719 85.653 26.7192C85.0422 26.3375 84.7369 25.1924 84.7369 23.4366V23.1312L85.653 24.5053V23.2076L86.6454 23.4366L84.7369 21.3754C84.9659 20.3066 85.1949 19.2379 85.2713 18.1691H85.3476V18.0928C85.5003 17.6347 85.5003 17.253 85.5003 16.795L84.5079 16.8713H82.6757L82.5994 17.1767ZM83.2101 12.3673C83.0574 12.291 82.752 12.291 82.5994 12.3673C82.3704 12.5963 82.3704 12.978 82.5994 13.207C82.752 13.1307 82.9047 13.1307 83.0574 13.207C83.2864 13.2834 83.4391 13.436 83.5154 13.6651H83.6681L83.5154 13.2834C83.3628 12.978 83.2101 12.6727 83.2101 12.3673ZM84.8896 13.1307C85.0422 13.0543 85.1949 12.9017 85.3476 12.8253C84.8896 12.8253 84.5079 12.6726 84.1262 12.4436C83.9735 12.2909 83.6681 12.2146 83.4391 12.2146V12.2909C83.5155 12.3673 83.5155 12.3673 83.5918 12.4436V12.52C83.5918 12.5963 83.5918 12.749 83.5918 12.8253C83.7445 12.5963 83.7445 12.5963 83.8971 12.6726C83.8208 12.749 83.8208 12.8253 83.7445 12.9017H83.5918C83.5155 12.749 83.4391 12.6727 83.4391 12.52C83.5155 12.749 83.5918 13.0543 83.6681 13.2834L83.8971 13.6651C83.9735 13.8177 83.9735 13.9704 83.8208 14.1231C83.7445 14.1231 83.6681 14.1231 83.5918 14.1231C83.5918 14.5048 83.5155 14.9628 83.2101 15.2682C82.9047 15.6499 82.6757 16.1079 82.5994 16.6423C83.5918 16.7187 84.5079 16.7187 85.5003 16.6423C85.5003 15.4209 85.2713 14.2758 84.8896 13.1307ZM89.0883 12.9017C88.3249 12.6727 87.5615 12.52 86.9507 13.5124C87.1034 13.8177 87.3324 14.0468 87.7141 14.1231C88.0958 14.1994 88.4012 14.0468 88.6302 13.7414L88.7066 13.6651L88.7829 13.7414C89.0883 14.1994 89.1646 14.7338 88.9356 15.2682C88.6302 15.8026 87.7905 16.4896 85.653 16.795C85.653 17.253 85.653 17.6347 85.5003 18.0928C86.569 18.0164 87.6378 17.7111 88.5539 17.1767C89.47 16.7187 90.0807 15.8026 90.0807 14.7338C90.0807 14.2758 89.928 13.8177 89.5463 13.5124V13.436C89.7753 13.3597 89.928 13.207 90.0043 12.978C89.699 13.0543 89.3936 12.978 89.0883 12.9017ZM82.5994 16.7187L85.5003 16.6423V16.8713C85.5003 16.8713 82.752 17.3294 82.5994 16.8713C82.5994 16.795 82.5994 16.7187 82.5994 16.7187Z" fill="white"/>
<path fill-rule="evenodd" clip-rule="evenodd" d="M77.1035 10.2297C77.1799 10.2297 77.3325 10.2297 77.4089 10.2297C77.5616 10.2297 77.7142 10.2297 77.8669 10.306C78.0196 10.535 78.0959 10.764 78.0196 10.9931C78.0196 11.2221 78.0196 11.4511 77.8669 11.6038C77.7142 11.7565 77.5616 11.7565 77.3325 11.7565C77.2562 11.7565 77.1799 11.7565 77.1035 11.7565V10.2297ZM77.4089 11.5274C77.6379 11.5274 77.7142 11.3748 77.7142 10.9167C77.7142 10.6114 77.7142 10.3823 77.4852 10.3823H77.4089V11.5274ZM79.1647 11.0694H78.783V11.5274H79.1647V11.7565H78.4013V10.2297H79.1647V10.4587H78.783V10.8404H79.1647V11.0694ZM79.9281 10.1533V11.2221C79.9281 11.4511 80.0044 11.5274 80.0808 11.5274C80.1571 11.5274 80.2334 11.5274 80.2334 11.2221V10.1533H80.5388V11.1457C80.5388 11.6038 80.3861 11.8328 80.0808 11.8328C79.7754 11.8328 79.6227 11.6038 79.6227 11.1457V10.1533H79.9281ZM81.2259 10.4587H80.9205V10.1533H81.8366V10.4587H81.5312V11.7565H81.2259V10.4587ZM82.1419 11.4511C82.2183 11.5274 82.371 11.5274 82.4473 11.5274C82.5236 11.5274 82.6 11.4511 82.6 11.3748C82.6 11.2221 82.5236 11.1457 82.4473 11.0694C82.2946 10.9931 82.1419 10.8404 82.1419 10.6114C82.1419 10.3823 82.371 10.1533 82.6 10.1533C82.6763 10.1533 82.829 10.1533 82.9053 10.1533L82.829 10.4587C82.7527 10.4587 82.6763 10.4587 82.6 10.4587C82.5236 10.4587 82.4473 10.535 82.4473 10.6114C82.4473 10.6877 82.6 10.8404 82.6763 10.8404C82.829 10.9167 82.9053 11.1457 82.9053 11.2984C82.9817 11.5274 82.7527 11.7565 82.5236 11.8328C82.4473 11.8328 82.4473 11.8328 82.371 11.8328C82.2946 11.8328 82.1419 11.8328 82.0656 11.7565L82.1419 11.4511ZM84.1268 11.7565C84.0504 11.7565 83.9741 11.7565 83.8978 11.7565C83.5161 11.6801 83.2107 11.3748 83.287 10.9931C83.287 10.6114 83.5161 10.306 83.8978 10.2297C83.9741 10.2297 84.0504 10.2297 84.1268 10.2297V10.4587C84.0504 10.4587 83.9741 10.4587 83.8978 10.4587C83.7451 10.4587 83.5924 10.6114 83.5924 10.9931C83.5924 11.3748 83.7451 11.5274 83.8978 11.5274C83.9741 11.5274 83.9741 11.5274 84.0504 11.5274L84.1268 11.7565ZM84.8138 10.2297V10.8404H85.1192V10.1533H85.4246V11.8328H85.1192V11.2221H84.8138V11.8328H84.5085V10.306L84.8138 10.2297ZM85.9589 10.2297H86.2643V11.5274H86.646V11.7565H85.8826V10.2297H85.9589ZM87.3331 11.4511V11.7565H86.9514L87.3331 10.2297H87.7148L88.0201 11.7565H87.7148L87.6384 11.4511H87.3331ZM87.6384 11.1457L87.5621 10.8404V10.4587L87.4094 10.8404V11.1457H87.6384ZM88.4018 11.7565V10.2297H88.7072L88.9362 10.8404L89.0889 11.2984V10.1533H89.3942V11.8328H89.0889L88.8598 11.2221C88.7835 11.0694 88.7072 10.9167 88.6308 10.764V11.8328H88.4018V11.7565ZM89.8523 10.2297C89.9286 10.2297 90.0813 10.2297 90.1576 10.2297C90.3103 10.2297 90.463 10.2297 90.6157 10.306C90.7683 10.4587 90.8447 10.764 90.8447 10.9931C90.8447 11.2221 90.7683 11.4511 90.6157 11.6038C90.463 11.7565 90.3103 11.7565 90.0813 11.7565C90.005 11.7565 89.9286 11.7565 89.8523 11.7565V10.2297ZM90.1576 11.5274C90.3866 11.5274 90.5393 11.3748 90.5393 10.9167C90.5393 10.6114 90.3866 10.3823 90.234 10.3823V11.5274H90.1576Z" fill="white"/>
<defs>
<linearGradient id="paint0_linear_5_8" x1="83.3578" y1="47.0254" x2="83.3578" y2="74.8513" gradientUnits="userSpaceOnUse">
<stop offset="0.31887" stop-color="#F5C7A6"/>
<stop offset="1" stop-color="#FAD1B4"/>
</linearGradient>
</defs>
</svg>
